<svg width="151" height="151" viewBox="0 0 151 151" fill="none" xmlns="http://www.w3.org/2000/svg">
<path fill-rule="evenodd" clip-rule="evenodd" d="M32.4241 136.884C63.0279 158.457 105.621 154.227 131.299 125.708C156.977 97.1897 156.732 54.3881 132.078 26.207L106.362 54.7683C116.133 68.7482 115.37 88.1036 103.468 101.322C91.566 114.54 72.3965 117.323 57.4717 109.066L32.4241 136.884ZM118.702 14.1626L92.8203 42.907C78.0333 35.2528 59.394 38.1854 47.7321 51.1372C36.0701 64.0891 35.102 82.9329 44.2599 96.8388L19.0475 124.84C-5.60608 96.6589 -5.85113 53.8573 19.8271 25.3387C45.5054 -3.1799 88.0981 -7.41017 118.702 14.1626Z" fill="black"/>
</svg>
